<?xml version="1.0" standalone="no"?>
<!DOCTYPE svg PUBLIC "-//W3C//DTD SVG 20010904//EN"
 "http://www.w3.org/TR/2001/REC-SVG-20010904/DTD/svg10.dtd">
<svg version="1.0" xmlns="http://www.w3.org/2000/svg"
 width="570.000000pt" height="720.000000pt" viewBox="0 0 570.000000 720.000000"
 preserveAspectRatio="xMidYMid meet">

<g transform="translate(0.000000,720.000000) scale(0.100000,-0.100000)"
fill="#000000" stroke="none">
<path d="M1921 6908 c-6 -17 -8 -47 -5 -65 10 -55 -1 -81 -39 -85 -24 -2 -33
-8 -35 -25 -3 -20 1 -23 27 -23 42 0 61 -23 63 -78 5 -103 0 -124 -35 -161
-78 -83 -93 -125 -57 -159 13 -12 25 -43 32 -82 13 -70 23 -54 -79 -137 -38
-30 -73 -104 -73 -152 0 -21 -26 -58 -35 -50 -3 4 -13 51 -21 104 -19 128 -33
182 -51 196 -20 17 -30 3 -47 -66 -41 -161 -44 -215 -37 -615 l7 -385 -23 -22
c-29 -27 -30 -59 -2 -68 20 -7 20 -9 14 -308 -4 -166 -15 -436 -26 -599 -20
-320 -37 -980 -25 -1041 8 -44 28 -48 45 -10 12 26 48 328 94 783 l22 225 170
-4 c164 -4 170 -5 188 -27 24 -31 35 -30 43 1 8 32 59 48 90 28 19 -12 24 -12
37 1 8 9 17 20 19 24 1 5 24 18 50 30 l47 20 5 -41 c3 -23 10 -121 16 -217 26
-414 60 -707 86 -748 22 -33 64 -26 84 13 24 48 14 427 -20 795 -28 299 -43
772 -42 1299 l2 544 25 23 c36 33 32 59 -12 83 -20 10 -23 20 -23 76 0 92 -20
266 -34 295 -6 14 -20 25 -31 25 -26 0 -33 -29 -35 -155 -3 -136 -13 -225 -25
-225 -5 0 -15 27 -21 60 -13 66 -48 105 -138 158 l-48 28 7 52 c4 29 16 65 27
81 40 55 -1 157 -78 193 -33 16 -34 18 -33 77 2 103 9 120 52 130 57 14 43 56
-19 56 l-32 0 -7 68 c-7 78 -19 112 -39 112 -8 0 -19 -14 -25 -32z m99 -539
c11 -25 10 -32 -2 -42 -12 -9 -17 -42 -22 -126 l-6 -115 65 -60 c74 -69 105
-111 105 -143 0 -19 -7 -22 -57 -28 -32 -3 -90 -13 -128 -21 -76 -16 -160 -8
-177 17 -5 8 -6 31 -3 52 10 69 35 115 91 162 l54 47 0 98 c0 74 -4 100 -15
110 -23 19 -18 45 15 80 29 31 31 32 49 16 11 -10 25 -31 31 -47z m271 -661
c-10 -64 -24 -223 -37 -420 -5 -79 -10 -108 -19 -108 -8 0 -20 -3 -29 -6 -14
-5 -16 5 -16 79 0 246 -62 396 -139 339 -54 -39 -76 -122 -87 -332 -4 -65 -12
-118 -18 -122 -6 -4 -21 -8 -32 -8 -20 0 -23 7 -29 73 -15 166 -36 311 -50
338 -21 39 -55 38 -89 -1 -39 -47 -48 -91 -53 -262 -5 -156 -6 -158 -28 -158
l-23 0 -6 213 c-7 261 -4 390 7 398 5 4 76 4 157 1 154 -5 360 9 445 32 28 7
52 12 54 10 2 -2 -2 -31 -8 -66z m-493 -263 c14 -41 32 -191 32 -267 l0 -48
-40 0 -40 0 0 158 c0 164 5 205 24 199 6 -2 17 -21 24 -42z m292 0 c12 -14 47
-261 39 -269 -10 -9 -94 -10 -94 -1 1 60 17 271 21 277 8 12 20 10 34 -7z
m164 -702 c4 -192 10 -379 15 -416 7 -63 6 -70 -13 -82 -54 -34 -55 -32 -60
125 -8 256 -34 380 -88 425 -92 77 -123 -22 -123 -398 l0 -247 -25 0 -25 0 -1
193 c-2 230 -24 424 -55 474 -47 75 -93 77 -122 5 -34 -86 -42 -163 -41 -420
0 -212 -2 -252 -14 -247 -7 3 -23 5 -35 5 l-22 0 0 432 c0 412 1 433 18 436
11 2 29 -6 41 -17 17 -16 25 -18 34 -9 7 7 12 18 12 25 0 16 72 18 101 2 17
-9 24 -6 43 14 21 22 34 26 122 31 54 4 110 8 124 10 14 2 43 4 66 5 l41 1 7
-347z m-413 -139 c5 -22 12 -135 16 -252 l6 -212 -34 6 c-19 4 -36 9 -39 11
-3 3 -5 107 -5 231 0 172 3 233 13 251 17 29 30 18 43 -35z m258 -19 c20 -42
32 -176 25 -285 -8 -109 -15 -130 -48 -130 l-24 0 -7 198 c-7 199 0 259 28
250 6 -3 18 -17 26 -33z"/>
<path d="M4176 6798 c-9 -13 -16 -52 -18 -91 l-3 -67 -41 0 c-50 0 -71 -19
-54 -49 8 -16 21 -21 50 -21 l40 0 0 -83 c0 -73 -3 -86 -21 -103 -34 -30 -48
-75 -55 -171 -8 -103 -14 -118 -51 -128 -38 -9 -73 -44 -73 -71 0 -21 34 -57
63 -67 15 -5 -7 -151 -34 -224 -11 -29 -48 -95 -82 -145 l-61 -93 -7 57 c-7
59 -21 88 -45 88 -24 0 -36 -41 -44 -158 -6 -84 -12 -118 -21 -121 -33 -10
-79 -69 -79 -100 0 -33 30 -71 56 -71 13 0 15 -8 10 -42 -24 -168 -31 -856
-16 -1528 8 -371 14 -423 48 -469 28 -39 88 -69 109 -55 28 18 35 79 18 158
-35 161 -86 588 -72 603 4 3 98 12 209 19 112 8 225 18 252 24 27 6 50 9 52 7
2 -2 17 -147 34 -323 36 -374 36 -378 61 -400 18 -16 19 -15 29 10 14 39 12
426 -5 786 -24 511 -17 1067 16 1192 6 24 17 39 32 44 59 18 75 72 34 120 -20
23 -22 33 -17 72 4 25 4 57 1 71 -9 33 -44 39 -63 12 -13 -19 -18 -13 -72 89
-61 117 -86 203 -86 306 0 52 4 64 25 84 33 31 32 55 -5 97 -30 33 -30 35 -30
152 0 126 -11 175 -41 192 -21 11 -24 42 -13 122 6 43 8 45 46 51 21 4 41 13
45 21 8 23 -16 45 -48 45 l-29 0 0 79 c0 56 -4 82 -14 90 -12 10 -18 8 -30
-11z m-1 -707 c0 -50 4 -65 19 -76 18 -13 17 -15 -10 -39 -28 -24 -29 -26 -28
-123 1 -125 25 -194 122 -361 40 -68 72 -127 72 -131 0 -5 -6 -13 -13 -19 -10
-9 -18 -2 -35 33 -47 97 -135 165 -212 165 -42 0 -107 -27 -129 -54 -32 -38
-25 -10 16 69 104 201 137 380 82 449 -11 14 -16 26 -10 26 17 0 81 61 81 77
0 23 20 55 33 50 8 -2 12 -27 12 -66z m-56 -656 c30 -15 53 -56 77 -135 20
-67 51 -101 100 -109 37 -6 39 -8 38 -41 0 -19 -7 -177 -14 -350 -7 -173 -14
-429 -14 -568 l-1 -252 -30 -5 c-51 -9 -315 -25 -406 -25 l-86 0 -7 77 c-9
116 -7 644 4 858 15 282 16 287 50 307 16 9 53 54 83 100 58 89 85 118 132
142 37 19 39 19 74 1z"/>
<path d="M4146 4852 c-9 -15 -30 -357 -23 -375 4 -11 17 -17 35 -17 43 0 54
34 59 190 4 144 -1 169 -44 197 -11 8 -24 10 -27 5z"/>
<path d="M3912 4818 c-20 -50 -37 -255 -26 -303 9 -37 12 -40 48 -43 39 -3 70
13 59 31 -3 6 -9 85 -12 176 l-6 166 -25 3 c-21 2 -28 -3 -38 -30z"/>
<path d="M5133 6152 c-14 -9 -33 -95 -33 -148 0 -32 -2 -34 -34 -34 -49 0 -66
-9 -66 -35 0 -37 23 -49 71 -37 l42 11 -6 -86 c-4 -54 -11 -89 -19 -94 -7 -5
-26 -36 -43 -71 -25 -52 -35 -64 -62 -70 -45 -11 -49 -38 -19 -102 20 -42 26
-70 26 -123 0 -37 -4 -73 -8 -80 -4 -7 -42 -28 -83 -47 -95 -43 -143 -96 -210
-228 -38 -75 -55 -99 -74 -104 -13 -3 -30 -12 -36 -20 -18 -22 17 -63 71 -83
44 -16 45 -17 48 -66 2 -28 1 -87 -3 -131 l-7 -82 -40 -6 c-54 -9 -78 -23 -78
-45 0 -23 37 -71 55 -71 23 0 30 -114 25 -425 -8 -475 -4 -750 12 -781 17 -35
49 -47 77 -28 20 15 21 22 21 242 0 224 -13 645 -26 875 l-7 117 69 0 69 0 -2
-152 c-3 -192 -23 -790 -32 -963 -4 -71 -4 -140 1 -152 10 -30 42 -30 72 0
l23 23 7 549 c3 303 9 580 13 618 l6 67 60 0 59 0 -5 -87 c-3 -49 -12 -124
-20 -168 -28 -147 -41 -328 -41 -585 -1 -286 4 -326 39 -342 50 -23 51 -15 59
339 4 181 11 373 16 428 5 55 9 169 10 254 l0 154 45 -6 c26 -2 49 -7 52 -11
3 -3 1 -117 -6 -253 -20 -444 -11 -755 25 -841 11 -28 18 -33 41 -30 32 4 31
-23 13 263 -10 150 -10 242 0 440 17 356 22 406 43 435 23 34 22 71 -3 77 -23
6 -23 12 -10 143 13 125 15 128 57 136 41 8 103 58 103 84 0 10 -15 36 -34 58
-22 28 -35 55 -39 86 -13 94 -89 204 -176 253 -25 15 -48 28 -50 30 -2 1 2 10
9 18 11 13 11 26 1 71 -16 72 -8 110 27 119 60 15 69 55 23 99 -15 15 -34 46
-41 69 -6 23 -20 56 -31 73 -20 33 -23 66 -13 152 6 49 8 52 36 52 40 0 68 17
68 40 0 24 -28 40 -69 40 -34 0 -34 0 -22 88 5 39 4 58 -6 72 -15 22 -22 24
-40 12z m12 -594 c17 -33 22 -54 16 -56 -34 -11 -57 -146 -36 -211 7 -22 5
-23 -16 -18 -13 4 -30 7 -36 7 -9 0 -13 21 -13 73 0 40 -7 99 -15 132 -13 47
-13 60 -3 67 7 4 16 8 19 8 3 0 11 11 17 25 18 38 38 30 67 -27z m-36 -369
c78 -16 138 -60 166 -122 27 -56 61 -194 51 -204 -3 -3 -99 4 -213 15 -115 12
-243 25 -287 28 l-78 6 6 29 c3 16 17 53 30 82 70 145 174 199 325 166z m-155
-408 c3 -5 -1 -15 -10 -22 -25 -21 -54 -86 -54 -121 0 -46 23 -75 69 -89 48
-14 80 -7 120 27 52 43 54 118 5 168 -15 14 -25 28 -23 31 7 6 148 -14 167
-24 15 -8 16 -22 11 -134 -4 -69 -10 -130 -14 -136 -3 -6 -35 -11 -70 -11 -66
0 -338 26 -367 36 -15 4 -16 21 -15 139 2 154 -7 141 109 144 37 0 69 -3 72
-8z"/>
<path d="M802 5838 c-7 -7 -12 -43 -12 -90 0 -76 -1 -78 -24 -78 -14 0 -32 -7
-41 -16 -21 -22 -3 -44 38 -44 l30 0 -6 -93 c-5 -91 -26 -167 -46 -167 -12 0
-41 -29 -41 -41 0 -6 11 -21 25 -35 l26 -26 -28 -196 c-30 -217 -30 -218 -58
-17 -23 168 -72 345 -95 345 -28 0 -80 -186 -80 -282 0 -43 -4 -58 -14 -58 -8
0 -17 -7 -20 -16 -8 -21 -9 -18 17 -46 23 -25 24 -33 33 -279 5 -140 8 -532 6
-872 -3 -610 -3 -618 17 -651 12 -19 35 -39 52 -46 26 -11 33 -11 47 4 23 23
22 100 -6 471 -37 498 -41 556 -48 772 l-7 208 57 -3 56 -4 0 -72 c0 -259 72
-978 125 -1239 23 -114 42 -157 71 -157 26 0 25 43 -5 187 -16 82 -37 196 -45
254 -41 275 -95 950 -82 1003 6 25 10 26 75 26 38 0 83 -3 100 -6 l31 -6 0
-137 c0 -421 60 -1098 102 -1148 32 -39 35 6 13 202 -16 145 -40 571 -50 885
l-6 206 48 -1 48 -1 7 -90 c4 -49 14 -199 23 -334 22 -338 64 -760 78 -789 17
-35 35 -37 47 -6 7 20 6 80 -5 209 -14 171 -25 395 -41 812 -4 129 -3 183 5
188 16 10 13 43 -4 50 -12 4 -15 32 -15 158 0 231 -15 364 -56 507 -19 69 -40
133 -45 143 -16 30 -46 22 -58 -14 -19 -58 -63 -261 -75 -343 -6 -44 -14 -75
-18 -70 -3 6 -20 66 -37 134 -23 88 -29 127 -22 134 18 18 12 53 -14 81 -14
15 -25 28 -26 29 0 1 -4 53 -7 115 -7 108 -6 112 13 112 50 1 62 49 15 60 -23
5 -26 11 -33 90 -9 90 -16 107 -35 88z m-207 -709 c9 -50 14 -93 11 -96 -2 -3
-19 -2 -36 2 l-32 7 7 80 c12 139 25 141 50 7z m478 67 c3 -8 9 -46 13 -85 l7
-71 -38 0 -38 0 7 46 c13 101 35 148 49 110z m-238 -139 c30 -46 115 -332 115
-386 0 -19 -6 -21 -52 -21 -29 0 -77 -3 -107 -7 l-54 -6 6 99 c9 156 46 344
68 344 4 0 15 -10 24 -23z m-211 -167 c6 -70 20 -166 31 -217 5 -21 2 -23 -44
-23 l-50 0 -5 53 c-3 28 -7 99 -9 157 l-5 106 38 -1 38 0 6 -75z m470 48 c3
-18 7 -95 10 -171 l6 -137 -25 5 c-14 3 -36 7 -50 10 l-25 5 0 160 0 160 40 0
c36 0 39 -2 44 -32z"/>
<path d="M824 4358 c-14 -26 -16 -52 -11 -147 8 -170 54 -421 77 -421 22 0 28
39 19 120 -5 47 -13 166 -18 265 -5 99 -12 188 -16 198 -11 27 -33 20 -51 -15z"/>
<path d="M2068 3785 c-50 -28 -64 -128 -49 -360 18 -271 22 -304 41 -328 l18
-22 13 28 c10 23 10 65 -4 235 -16 196 -16 252 4 252 17 0 29 -42 55 -196 27
-165 57 -278 76 -290 6 -4 17 2 25 12 11 14 13 38 8 94 -3 41 -10 165 -16 275
-5 110 -14 217 -20 237 -18 68 -87 97 -151 63z"/>
<path d="M1752 3756 c-35 -40 -44 -78 -67 -271 -21 -170 -24 -349 -7 -367 20
-20 46 3 54 48 4 21 14 111 23 199 18 170 41 295 55 295 29 0 48 -105 60 -333
10 -180 21 -228 54 -240 23 -9 44 18 52 68 10 69 -33 432 -67 557 -12 46 -51
78 -94 78 -25 0 -40 -8 -63 -34z"/>
<path d="M2910 2748 c-74 -10 -107 -28 -121 -65 -6 -16 -8 -315 -7 -799 3
-764 3 -774 23 -794 54 -53 431 -73 588 -31 197 52 324 178 367 360 20 84 9
225 -23 294 -36 80 -111 151 -202 193 -41 19 -75 36 -75 38 0 2 25 18 56 36
145 82 224 213 224 376 0 203 -125 341 -354 389 -84 17 -365 19 -476 3z m389
-168 c52 -15 105 -56 132 -103 22 -38 24 -54 24 -157 0 -110 -1 -117 -31 -170
-35 -61 -101 -113 -167 -131 -23 -6 -77 -12 -122 -12 l-80 -2 0 290 0 290 30
7 c37 9 168 1 214 -12z m32 -762 c62 -28 100 -63 132 -123 19 -35 22 -56 22
-160 0 -105 -3 -127 -24 -172 -52 -116 -155 -170 -307 -160 -45 2 -87 8 -93
11 -8 5 -11 105 -11 323 l0 316 113 -5 c93 -3 121 -8 168 -30z"/>
<path d="M4725 2753 c-89 -11 -136 -26 -150 -46 -13 -19 -15 -123 -15 -809 0
-760 1 -789 19 -807 23 -23 84 -37 232 -52 258 -25 479 30 599 150 134 134
175 375 93 539 -33 65 -114 142 -187 176 -30 14 -60 26 -65 26 -25 0 -7 19 47
53 76 47 147 123 180 195 25 52 27 68 27 177 0 118 -1 121 -34 183 -60 111
-162 178 -315 207 -72 14 -347 19 -431 8z m300 -164 c33 -6 76 -20 97 -30 82
-42 127 -151 114 -278 -19 -185 -141 -281 -358 -281 l-48 0 0 294 0 295 33 4
c64 8 104 7 162 -4z m68 -766 c103 -41 147 -99 168 -217 15 -88 -1 -200 -38
-268 -59 -108 -194 -158 -355 -132 l-38 7 0 320 0 320 108 -5 c74 -4 122 -11
155 -25z"/>
<path d="M521 2726 c-21 -23 -24 -40 -37 -248 -28 -436 -66 -783 -101 -928
-32 -134 -94 -221 -173 -244 -65 -19 -71 -37 -57 -165 14 -126 18 -130 112
-114 128 22 213 102 277 261 80 195 124 491 158 1047 6 99 13 195 16 213 l5
32 159 0 160 0 0 -745 c0 -881 -17 -789 142 -783 85 2 102 6 114 22 12 17 14
147 14 832 0 725 -2 814 -16 828 -13 14 -62 16 -383 16 l-368 0 -22 -24z"/>
<path d="M1626 2734 c-14 -14 -16 -102 -16 -819 0 -927 -12 -835 110 -862 116
-25 372 -22 473 5 249 68 397 256 397 502 -1 331 -213 519 -560 496 -52 -3
-107 -9 -122 -12 l-28 -6 0 334 c0 286 -2 337 -16 356 -14 20 -23 22 -119 22
-81 0 -107 -3 -119 -16z m540 -872 c83 -43 129 -118 144 -238 31 -239 -84
-409 -285 -422 -40 -2 -90 -2 -109 2 l-36 7 0 328 0 329 38 11 c62 17 200 8
248 -17z"/>
<path d="M3999 2733 c-12 -13 -14 -155 -14 -829 0 -767 1 -814 18 -831 15 -15
35 -18 116 -18 68 0 103 4 114 14 16 12 17 83 17 832 0 730 -2 819 -16 833
-23 24 -216 23 -235 -1z"/>
<path d="M2690 755 c0 -9 11 -27 25 -40 32 -33 100 -35 139 -4 37 29 35 59 -4
59 -19 0 -30 -5 -30 -14 0 -8 -5 -18 -11 -21 -16 -11 -59 4 -59 20 0 10 -10
15 -30 15 -20 0 -30 -5 -30 -15z"/>
<path d="M300 501 l0 -171 75 0 c120 0 165 28 165 103 0 26 -7 41 -28 59 -26
22 -26 24 -10 41 27 26 23 79 -8 108 -22 21 -37 24 -110 28 l-84 3 0 -171z
m138 107 c7 -7 12 -21 12 -33 0 -30 -19 -45 -57 -45 -32 0 -33 1 -33 45 0 44
1 45 33 45 18 0 38 -5 45 -12z m14 -145 c24 -21 23 -60 -1 -73 -11 -5 -36 -10
-55 -10 l-36 0 0 50 0 50 37 0 c20 0 45 -7 55 -17z"/>
<path d="M597 663 c-4 -3 -7 -80 -7 -170 l0 -163 35 0 35 0 0 170 0 170 -28 0
c-16 0 -32 -3 -35 -7z"/>
<path d="M802 653 c-5 -10 -13 -47 -17 -83 -10 -97 -36 -173 -63 -185 -20 -9
-22 -17 -22 -77 l0 -68 30 0 c29 0 30 2 30 45 l0 45 115 0 115 0 0 -45 c0 -43
1 -45 30 -45 l30 0 0 70 c0 63 -2 70 -20 70 -18 0 -20 8 -22 143 l-3 142 -97
3 c-85 2 -98 0 -106 -15z m138 -153 l0 -120 -65 0 c-36 0 -65 4 -65 9 0 5 6
24 14 42 8 19 20 69 26 112 l13 77 38 0 39 0 0 -120z"/>
<path d="M1100 500 l0 -170 30 0 30 0 0 68 c0 38 3 71 6 74 3 3 17 3 32 -1 21
-6 33 -21 54 -72 25 -61 28 -64 63 -67 34 -3 36 -2 30 20 -18 59 -50 120 -71
137 -20 16 -21 20 -8 25 14 5 53 82 69 134 6 20 3 22 -28 22 -33 0 -35 -3 -56
-60 -22 -60 -49 -87 -77 -76 -10 4 -14 23 -14 71 l0 65 -30 0 -30 0 0 -170z"/>
<path d="M1401 651 c-8 -13 -11 -73 -9 -168 l3 -148 33 -3 32 -3 0 60 0 61 43
0 c56 0 88 18 112 62 15 29 17 43 10 73 -15 57 -51 79 -140 83 -66 4 -74 2
-84 -17z m140 -48 c4 -4 11 -20 14 -35 9 -34 -23 -68 -65 -68 l-30 0 0 61 0
62 37 -6 c20 -4 40 -10 44 -14z"/>
<path d="M1680 500 l0 -170 29 0 c25 0 37 13 102 112 l74 112 3 -112 3 -112
29 0 30 0 0 170 0 170 -27 0 c-24 0 -38 -16 -103 -113 l-75 -112 -3 113 -3
112 -29 0 -30 0 0 -170z"/>
<path d="M1996 655 c-11 -30 5 -45 50 -45 l44 0 0 -140 0 -140 35 0 35 0 0
140 0 140 44 0 c45 0 61 15 50 45 -9 22 -249 22 -258 0z"/>
<path d="M2300 500 l0 -170 29 0 c25 0 37 13 102 112 l74 112 3 -112 3 -112
29 0 30 0 0 170 0 170 -27 0 c-24 0 -38 -16 -103 -113 l-75 -112 -3 113 -3
112 -29 0 -30 0 0 -170z"/>
<path d="M2647 663 c-4 -3 -7 -80 -7 -170 l0 -163 33 0 c30 0 37 8 102 107
l70 107 3 -107 3 -107 34 0 35 0 0 170 0 170 -29 0 c-25 0 -37 -13 -102 -112
l-74 -112 -3 112 -3 112 -28 0 c-15 0 -31 -3 -34 -7z"/>
<path d="M3187 663 c-3 -4 -10 -44 -17 -88 -15 -104 -37 -173 -61 -188 -16
-10 -19 -24 -19 -79 l0 -68 30 0 c29 0 30 2 30 45 l0 46 113 -3 112 -3 3 -43
c3 -40 5 -43 30 -40 26 3 27 6 30 66 3 58 1 63 -22 72 -25 9 -25 10 -28 147
l-3 138 -97 3 c-53 1 -99 -1 -101 -5z m133 -163 l0 -120 -65 0 c-36 0 -65 2
-65 4 0 2 6 19 14 38 8 19 20 66 26 104 16 95 15 94 55 94 l35 0 0 -120z"/>
<path d="M3564 659 c-4 -7 -13 -53 -21 -103 -17 -118 -29 -151 -59 -170 -23
-16 -32 -50 -16 -60 5 -3 26 -1 46 5 31 8 41 18 56 53 15 31 50 191 50 222 0
2 16 4 35 4 l34 0 3 -137 3 -138 33 -3 32 -3 -2 168 -3 168 -92 3 c-63 2 -94
-1 -99 -9z"/>
<path d="M3883 655 c-38 -16 -53 -42 -53 -89 0 -36 27 -76 52 -76 6 0 2 -10
-10 -23 -20 -21 -41 -64 -57 -115 -6 -22 -4 -23 30 -20 34 3 38 7 58 58 22 54
63 90 87 75 6 -3 10 -35 10 -71 l0 -64 35 0 35 0 0 154 c0 85 -3 161 -6 170
-8 21 -134 22 -181 1z m117 -85 l0 -50 -38 0 c-45 0 -62 14 -62 52 0 31 23 46
73 47 26 1 27 -1 27 -49z"/>
<path d="M4322 650 c-66 -40 -92 -161 -53 -247 26 -57 61 -78 130 -77 73 0
101 16 101 55 0 30 0 30 -30 14 -67 -35 -132 -4 -145 69 -9 48 13 114 47 139
27 20 48 19 116 -9 22 -10 14 44 -10 60 -32 23 -115 21 -156 -4z"/>
<path d="M4554 657 c-2 -7 -3 -82 -2 -167 l3 -155 77 -3 c93 -3 133 13 154 64
12 29 12 39 0 68 -8 19 -24 37 -36 41 -21 7 -21 7 -2 21 47 33 30 112 -29 133
-45 16 -158 14 -165 -2z m140 -53 c32 -32 10 -74 -39 -74 -35 0 -35 0 -35 45
0 43 1 45 29 45 16 0 37 -7 45 -16z m8 -136 c44 -36 19 -88 -43 -88 l-39 0 0
50 c0 50 0 50 33 50 18 0 40 -6 49 -12z"/>
<path d="M4850 500 l0 -171 33 3 32 3 0 165 0 165 -32 3 -33 3 0 -171z"/>
<path d="M4960 640 c0 -29 2 -30 45 -30 l45 0 0 -140 0 -140 35 0 35 0 0 139
0 140 48 3 c43 3 47 5 47 28 l0 25 -127 3 -128 3 0 -31z"/>
<path d="M5243 658 c3 -7 30 -66 61 -130 49 -105 53 -119 40 -133 -10 -9 -24
-13 -40 -9 -21 6 -24 3 -24 -24 0 -22 6 -31 21 -35 33 -9 75 3 97 27 18 18
132 286 132 308 0 4 -15 8 -34 8 -33 0 -34 -1 -67 -92 l-33 -92 -44 92 c-43
91 -44 92 -79 92 -24 0 -34 -4 -30 -12z"/>
</g>
</svg>
